ffmpeg started on 2025-06-06 at 19:07:19
Report written to "D:\Convert\FFMetrics\reports\psnr_report-6.txt"
Log level: 32
Command line:
ffmpeg -hide_banner -nostdin -i "G:\\\xc0\xed\xe8\xec\xe5\\\xce\xed\xe3\xee\xe8\xed\xe3\xe8\\!_36_\xce\xf1\xe5\xed\xfc_2024\\DreamCast\\\xd0\xee\xed \xca\xe0\xec\xee\xed\xee\xf5\xe0\xf1\xe8 - \xcd\xe5\xe2\xec\xe5\xed\xff\xe5\xec\xfb\xe9 \xe4\xe5\xf2\xe5\xea\xf2\xe8\xe2\\\xd2\xc2-1\\[DC] Kamonohashi Ron no Kindan Suiri - 01_Telegram_HEVC.mkv" -i "G:\\\xc0\xed\xe8\xec\xe5\\\xce\xed\xe3\xee\xe8\xed\xe3\xe8\\!_36_\xce\xf1\xe5\xed\xfc_2024\\DreamCast\\\xd0\xee\xed \xca\xe0\xec\xee\xed\xee\xf5\xe0\xf1\xe8 - \xcd\xe5\xe2\xec\xe5\xed\xff\xe5\xec\xfb\xe9 \xe4\xe5\xf2\xe5\xea\xf2\xe8\xe2\\\xd2\xc2-1\\[DC] Kamonohashi Ron no Kindan Suiri - 01_Telegram.mp4" -lavfi "[0:v]settb=AVTB,setpts=PTS-STARTPTS,format=pix_fmts=yuv420p10,fps=24000/1001,scale=1920:1080:flags=bicubic[main];[1:v]settb=AVTB,setpts=PTS-STARTPTS,format=pix_fmts=yuv420p,fps=24000/1001,scale=1920:1080:flags=bicubic[ref];[main][ref]psnr=eof_action=endall:stats_file='D\\:/Convert/FFMetrics/logs/psnr_logfile-6.txt'" -f null -
Input #0, matroska,webm, from 'G:\Аниме\Онгоинги\!_36_Осень_2024\DreamCast\Рон Камонохаси - Невменяемый детектив\ТВ-1\[DC] Kamonohashi Ron no Kindan Suiri - 01_Telegram_HEVC.mkv':
  Metadata:
    COMPATIBLE_BRANDS: isomiso2avc1mp41
    MAJOR_BRAND     : isom
    MINOR_VERSION   : 512
    ENCODER         : Lavf61.7.100
  Duration: 00:24:47.06, start: -0.021000, bitrate: 698 kb/s
  Stream #0:0: Video: hevc (Main 10), yuv420p10le(tv, bt709, progressive), 1920x1080 [SAR 1:1 DAR 16:9], 23.98 fps, 23.98 tbr, 1k tbn (default)
      Metadata:
        HANDLER_NAME    : VideoHandler
        VENDOR_ID       : [0][0][0][0]
        ENCODER         : Lavc61.19.100 libx265
        BPS             : 502670
        DURATION        : 00:24:44.024708333
        NUMBER_OF_FRAMES: 35581
        NUMBER_OF_BYTES : 93246875
        _STATISTICS_WRITING_APP: mkvpropedit v66.0.0 ('Josie') 64-bit
        _STATISTICS_WRITING_DATE_UTC: 2025-06-03 14:09:06
        _STATISTICS_TAGS: BPS DURATION NUMBER_OF_FRAMES NUMBER_OF_BYTES
  Stream #0:1: Audio: aac (LC), 48000 Hz, stereo, fltp (default)
      Metadata:
        HANDLER_NAME    : SoundHandler
        VENDOR_ID       : [0][0][0][0]
        ENCODER         : Lavc61.19.100 aac
        BPS             : 192948
        DURATION        : 00:24:47.061000000
        NUMBER_OF_FRAMES: 69707
        NUMBER_OF_BYTES : 35865827
        _STATISTICS_WRITING_APP: mkvpropedit v66.0.0 ('Josie') 64-bit
        _STATISTICS_WRITING_DATE_UTC: 2025-06-03 14:09:06
        _STATISTICS_TAGS: BPS DURATION NUMBER_OF_FRAMES NUMBER_OF_BYTES
Input #1, mov,mp4,m4a,3gp,3g2,mj2, from 'G:\Аниме\Онгоинги\!_36_Осень_2024\DreamCast\Рон Камонохаси - Невменяемый детектив\ТВ-1\[DC] Kamonohashi Ron no Kindan Suiri - 01_Telegram.mp4':
  Metadata:
    major_brand     : isom
    minor_version   : 512
    compatible_brands: isomiso2avc1mp41
    encoder         : Lavf60.12.100
  Duration: 00:24:47.01, start: 0.000000, bitrate: 3308 kb/s
  Stream #1:0[0x1](und): Video: h264 (High) (avc1 / 0x31637661), yuv420p(tv, bt709, progressive), 1920x1080 [SAR 1:1 DAR 16:9], 3167 kb/s, 23.98 fps, 23.98 tbr, 24k tbn (default)
      Metadata:
        handler_name    : VideoHandler
        vendor_id       : [0][0][0][0]
        encoder         : Lavc60.26.100 h264_qsv
  Stream #1:1[0x2](und): Audio: aac (HE-AACv2) (mp4a / 0x6134706D), 48000 Hz, stereo, fltp, 144 kb/s (default)
      Metadata:
        handler_name    : SoundHandler
        vendor_id       : [0][0][0][0]
Stream mapping:
  Stream #0:0 (hevc) -> settb:default
  Stream #1:0 (h264) -> settb:default
  psnr:default -> Stream #0:0 (wrapped_avframe)
  Stream #0:1 -> #0:1 (aac (native) -> pcm_s16le (native))
Output #0, null, to 'pipe:':
  Metadata:
    COMPATIBLE_BRANDS: isomiso2avc1mp41
    MAJOR_BRAND     : isom
    MINOR_VERSION   : 512
    encoder         : Lavf61.7.100
  Stream #0:0: Video: wrapped_avframe, yuv420p10le(tv, bt709, progressive), 1920x1080 [SAR 1:1 DAR 16:9], q=2-31, 200 kb/s, 23.98 fps, 23.98 tbn
      Metadata:
        encoder         : Lavc61.19.100 wrapped_avframe
  Stream #0:1: Audio: pcm_s16le, 48000 Hz, stereo, s16, 1536 kb/s (default)
      Metadata:
        HANDLER_NAME    : SoundHandler
        VENDOR_ID       : [0][0][0][0]
        _STATISTICS_TAGS: BPS DURATION NUMBER_OF_FRAMES NUMBER_OF_BYTES
        BPS             : 192948
        DURATION        : 00:24:47.061000000
        NUMBER_OF_FRAMES: 69707
        NUMBER_OF_BYTES : 35865827
        _STATISTICS_WRITING_APP: mkvpropedit v66.0.0 ('Josie') 64-bit
        _STATISTICS_WRITING_DATE_UTC: 2025-06-03 14:09:06
        encoder         : Lavc61.19.100 pcm_s16le
frame=  184 fps=0.0 q=-0.0 size=N/A time=00:00:07.67 bitrate=N/A speed=14.8x    frame=  445 fps=427 q=-0.0 size=N/A time=00:00:18.56 bitrate=N/A speed=17.8x    frame=  718 fps=462 q=-0.0 size=N/A time=00:00:29.94 bitrate=N/A speed=19.3x    frame=  970 fps=468 q=-0.0 size=N/A time=00:00:40.45 bitrate=N/A speed=19.5x    frame= 1251 fps=484 q=-0.0 size=N/A time=00:00:52.17 bitrate=N/A speed=20.2x    frame= 1519 fps=490 q=-0.0 size=N/A time=00:01:03.35 bitrate=N/A speed=20.4x    frame= 1743 fps=482 q=-0.0 size=N/A time=00:01:12.69 bitrate=N/A speed=20.1x    frame= 2008 fps=486 q=-0.0 size=N/A time=00:01:23.75 bitrate=N/A speed=20.3x    frame= 2233 fps=480 q=-0.0 size=N/A time=00:01:33.13 bitrate=N/A speed=  20x    frame= 2455 fps=475 q=-0.0 size=N/A time=00:01:42.39 bitrate=N/A speed=19.8x    frame= 2731 fps=481 q=-0.0 size=N/A time=00:01:53.90 bitrate=N/A speed=20.1x    frame= 3001 fps=484 q=-0.0 size=N/A time=00:02:05.16 bitrate=N/A speed=20.2x    frame= 3212 fps=479 q=-0.0 size=N/A time=00:02:13.96 bitrate=N/A speed=  20x    frame= 3475 fps=481 q=-0.0 size=N/A time=00:02:24.93 bitrate=N/A speed=20.1x    frame= 3720 fps=481 q=-0.0 size=N/A time=00:02:35.15 bitrate=N/A speed=  20x    frame= 3960 fps=479 q=-0.0 size=N/A time=00:02:45.16 bitrate=N/A speed=  20x    frame= 4221 fps=481 q=-0.0 size=N/A time=00:02:56.05 bitrate=N/A speed=20.1x    frame= 4488 fps=483 q=-0.0 size=N/A time=00:03:07.18 bitrate=N/A speed=20.1x    frame= 4752 fps=485 q=-0.0 size=N/A time=00:03:18.19 bitrate=N/A speed=20.2x    frame= 5012 fps=486 q=-0.0 size=N/A time=00:03:29.04 bitrate=N/A speed=20.3x    frame= 5290 fps=488 q=-0.0 size=N/A time=00:03:40.63 bitrate=N/A speed=20.4x    frame= 5579 fps=492 q=-0.0 size=N/A time=00:03:52.69 bitrate=N/A speed=20.5x    frame= 5842 fps=492 q=-0.0 size=N/A time=00:04:03.66 bitrate=N/A speed=20.5x    frame= 6127 fps=495 q=-0.0 size=N/A time=00:04:15.54 bitrate=N/A speed=20.6x    frame= 6397 fps=495 q=-0.0 size=N/A time=00:04:26.80 bitrate=N/A speed=20.7x    frame= 6653 fps=495 q=-0.0 size=N/A time=00:04:37.48 bitrate=N/A speed=20.7x    frame= 6916 fps=496 q=-0.0 size=N/A time=00:04:48.45 bitrate=N/A speed=20.7x    frame= 7167 fps=496 q=-0.0 size=N/A time=00:04:58.92 bitrate=N/A speed=20.7x    frame= 7432 fps=496 q=-0.0 size=N/A time=00:05:09.97 bitrate=N/A speed=20.7x    frame= 7696 fps=497 q=-0.0 size=N/A time=00:05:20.98 bitrate=N/A speed=20.7x    frame= 7963 fps=497 q=-0.0 size=N/A time=00:05:32.12 bitrate=N/A speed=20.7x    frame= 8234 fps=498 q=-0.0 size=N/A time=00:05:43.42 bitrate=N/A speed=20.8x    frame= 8507 fps=499 q=-0.0 size=N/A time=00:05:54.81 bitrate=N/A speed=20.8x    frame= 8768 fps=499 q=-0.0 size=N/A time=00:06:05.69 bitrate=N/A speed=20.8x    frame= 9029 fps=500 q=-0.0 size=N/A time=00:06:16.58 bitrate=N/A speed=20.8x    frame= 9300 fps=500 q=-0.0 size=N/A time=00:06:27.88 bitrate=N/A speed=20.9x    frame= 9566 fps=501 q=-0.0 size=N/A time=00:06:38.98 bitrate=N/A speed=20.9x    frame= 9835 fps=501 q=-0.0 size=N/A time=00:06:50.20 bitrate=N/A speed=20.9x    frame=10097 fps=502 q=-0.0 size=N/A time=00:07:01.17 bitrate=N/A speed=20.9x    frame=10388 fps=503 q=-0.0 size=N/A time=00:07:13.26 bitrate=N/A speed=  21x    frame=10656 fps=504 q=-0.0 size=N/A time=00:07:24.44 bitrate=N/A speed=  21x    frame=10921 fps=504 q=-0.0 size=N/A time=00:07:35.49 bitrate=N/A speed=  21x    frame=11178 fps=504 q=-0.0 size=N/A time=00:07:46.21 bitrate=N/A speed=  21x    frame=11452 fps=504 q=-0.0 size=N/A time=00:07:57.68 bitrate=N/A speed=  21x    frame=11728 fps=505 q=-0.0 size=N/A time=00:08:09.15 bitrate=N/A speed=21.1x    frame=12001 fps=506 q=-0.0 size=N/A time=00:08:20.54 bitrate=N/A speed=21.1x    frame=12217 fps=504 q=-0.0 size=N/A time=00:08:29.55 bitrate=N/A speed=  21x    frame=12485 fps=504 q=-0.0 size=N/A time=00:08:40.72 bitrate=N/A speed=  21x    frame=12669 fps=501 q=-0.0 size=N/A time=00:08:48.44 bitrate=N/A speed=20.9x    frame=12918 fps=501 q=-0.0 size=N/A time=00:08:58.78 bitrate=N/A speed=20.9x    frame=13180 fps=501 q=-0.0 size=N/A time=00:09:09.71 bitrate=N/A speed=20.9x    frame=13458 fps=501 q=-0.0 size=N/A time=00:09:21.31 bitrate=N/A speed=20.9x    frame=13739 fps=502 q=-0.0 size=N/A time=00:09:33.03 bitrate=N/A speed=20.9x    frame=14016 fps=503 q=-0.0 size=N/A time=00:09:44.58 bitrate=N/A speed=  21x    frame=14278 fps=503 q=-0.0 size=N/A time=00:09:55.51 bitrate=N/A speed=  21x    frame=14536 fps=503 q=-0.0 size=N/A time=00:10:06.27 bitrate=N/A speed=  21x    frame=14812 fps=503 q=-0.0 size=N/A time=00:10:17.78 bitrate=N/A speed=  21x    frame=15103 fps=504 q=-0.0 size=N/A time=00:10:29.92 bitrate=N/A speed=  21x    frame=15384 fps=505 q=-0.0 size=N/A time=00:10:41.64 bitrate=N/A speed=21.1x    frame=15662 fps=506 q=-0.0 size=N/A time=00:10:53.23 bitrate=N/A speed=21.1x    frame=15933 fps=506 q=-0.0 size=N/A time=00:11:04.53 bitrate=N/A speed=21.1x    frame=16227 fps=507 q=-0.0 size=N/A time=00:11:16.80 bitrate=N/A speed=21.1x    frame=16502 fps=507 q=-0.0 size=N/A time=00:11:28.27 bitrate=N/A speed=21.2x    frame=16776 fps=508 q=-0.0 size=N/A time=00:11:39.69 bitrate=N/A speed=21.2x    frame=17058 fps=508 q=-0.0 size=N/A time=00:11:51.46 bitrate=N/A speed=21.2x    frame=17317 fps=508 q=-0.0 size=N/A time=00:12:02.26 bitrate=N/A speed=21.2x    frame=17566 fps=508 q=-0.0 size=N/A time=00:12:12.64 bitrate=N/A speed=21.2x    frame=17829 fps=508 q=-0.0 size=N/A time=00:12:23.61 bitrate=N/A speed=21.2x    frame=18060 fps=507 q=-0.0 size=N/A time=00:12:33.25 bitrate=N/A speed=21.1x    frame=18299 fps=506 q=-0.0 size=N/A time=00:12:43.22 bitrate=N/A speed=21.1x    frame=18535 fps=506 q=-0.0 size=N/A time=00:12:53.06 bitrate=N/A speed=21.1x    frame=18801 fps=506 q=-0.0 size=N/A time=00:13:04.15 bitrate=N/A speed=21.1x    frame=19065 fps=506 q=-0.0 size=N/A time=00:13:15.16 bitrate=N/A speed=21.1x    frame=19330 fps=506 q=-0.0 size=N/A time=00:13:26.22 bitrate=N/A speed=21.1x    frame=19619 fps=507 q=-0.0 size=N/A time=00:13:38.27 bitrate=N/A speed=21.1x    frame=19906 fps=507 q=-0.0 size=N/A time=00:13:50.24 bitrate=N/A speed=21.2x    frame=20155 fps=507 q=-0.0 size=N/A time=00:14:00.63 bitrate=N/A speed=21.2x    frame=20421 fps=507 q=-0.0 size=N/A time=00:14:11.72 bitrate=N/A speed=21.2x    frame=20715 fps=508 q=-0.0 size=N/A time=00:14:23.98 bitrate=N/A speed=21.2x    frame=20979 fps=508 q=-0.0 size=N/A time=00:14:34.99 bitrate=N/A speed=21.2x    frame=21177 fps=507 q=-0.0 size=N/A time=00:14:43.25 bitrate=N/A speed=21.1x    frame=21399 fps=506 q=-0.0 size=N/A time=00:14:52.51 bitrate=N/A speed=21.1x    frame=21664 fps=506 q=-0.0 size=N/A time=00:15:03.56 bitrate=N/A speed=21.1x    frame=21933 fps=506 q=-0.0 size=N/A time=00:15:14.78 bitrate=N/A speed=21.1x    frame=22179 fps=506 q=-0.0 size=N/A time=00:15:25.04 bitrate=N/A speed=21.1x    frame=22436 fps=506 q=-0.0 size=N/A time=00:15:35.76 bitrate=N/A speed=21.1x    frame=22689 fps=505 q=-0.0 size=N/A time=00:15:46.32 bitrate=N/A speed=21.1x    frame=22966 fps=506 q=-0.0 size=N/A time=00:15:57.87 bitrate=N/A speed=21.1x    frame=23232 fps=506 q=-0.0 size=N/A time=00:16:08.96 bitrate=N/A speed=21.1x    frame=23514 fps=506 q=-0.0 size=N/A time=00:16:20.72 bitrate=N/A speed=21.1x    frame=23767 fps=506 q=-0.0 size=N/A time=00:16:31.28 bitrate=N/A speed=21.1x    frame=24039 fps=506 q=-0.0 size=N/A time=00:16:42.62 bitrate=N/A speed=21.1x    frame=24323 fps=507 q=-0.0 size=N/A time=00:16:54.47 bitrate=N/A speed=21.1x    frame=24603 fps=507 q=-0.0 size=N/A time=00:17:06.15 bitrate=N/A speed=21.2x    frame=24887 fps=508 q=-0.0 size=N/A time=00:17:17.99 bitrate=N/A speed=21.2x    frame=25154 fps=508 q=-0.0 size=N/A time=00:17:29.13 bitrate=N/A speed=21.2x    frame=25420 fps=508 q=-0.0 size=N/A time=00:17:40.22 bitrate=N/A speed=21.2x    frame=25695 fps=508 q=-0.0 size=N/A time=00:17:51.69 bitrate=N/A speed=21.2x    frame=25963 fps=508 q=-0.0 size=N/A time=00:18:02.87 bitrate=N/A speed=21.2x    frame=26234 fps=508 q=-0.0 size=N/A time=00:18:14.17 bitrate=N/A speed=21.2x    frame=26496 fps=508 q=-0.0 size=N/A time=00:18:25.10 bitrate=N/A speed=21.2x    frame=26748 fps=508 q=-0.0 size=N/A time=00:18:35.61 bitrate=N/A speed=21.2x    frame=27026 fps=508 q=-0.0 size=N/A time=00:18:47.20 bitrate=N/A speed=21.2x    frame=27306 fps=509 q=-0.0 size=N/A time=00:18:58.88 bitrate=N/A speed=21.2x    frame=27561 fps=509 q=-0.0 size=N/A time=00:19:09.52 bitrate=N/A speed=21.2x    frame=27836 fps=509 q=-0.0 size=N/A time=00:19:20.99 bitrate=N/A speed=21.2x    frame=28093 fps=509 q=-0.0 size=N/A time=00:19:31.71 bitrate=N/A speed=21.2x    frame=28356 fps=509 q=-0.0 size=N/A time=00:19:42.68 bitrate=N/A speed=21.2x    frame=28609 fps=509 q=-0.0 size=N/A time=00:19:53.23 bitrate=N/A speed=21.2x    frame=28899 fps=509 q=-0.0 size=N/A time=00:20:05.32 bitrate=N/A speed=21.2x    frame=29162 fps=509 q=-0.0 size=N/A time=00:20:16.29 bitrate=N/A speed=21.2x    frame=29397 fps=509 q=-0.0 size=N/A time=00:20:26.09 bitrate=N/A speed=21.2x    frame=29665 fps=509 q=-0.0 size=N/A time=00:20:37.27 bitrate=N/A speed=21.2x    frame=29933 fps=509 q=-0.0 size=N/A time=00:20:48.45 bitrate=N/A speed=21.2x    frame=30179 fps=509 q=-0.0 size=N/A time=00:20:58.71 bitrate=N/A speed=21.2x    frame=30456 fps=509 q=-0.0 size=N/A time=00:21:10.26 bitrate=N/A speed=21.2x    frame=30711 fps=509 q=-0.0 size=N/A time=00:21:20.90 bitrate=N/A speed=21.2x    frame=30956 fps=508 q=-0.0 size=N/A time=00:21:31.12 bitrate=N/A speed=21.2x    frame=31207 fps=508 q=-0.0 size=N/A time=00:21:41.59 bitrate=N/A speed=21.2x    frame=31464 fps=508 q=-0.0 size=N/A time=00:21:52.31 bitrate=N/A speed=21.2x    frame=31743 fps=508 q=-0.0 size=N/A time=00:22:03.94 bitrate=N/A speed=21.2x    frame=31995 fps=508 q=-0.0 size=N/A time=00:22:14.45 bitrate=N/A speed=21.2x    frame=32265 fps=508 q=-0.0 size=N/A time=00:22:25.71 bitrate=N/A speed=21.2x    frame=32533 fps=509 q=-0.0 size=N/A time=00:22:36.89 bitrate=N/A speed=21.2x    frame=32772 fps=508 q=-0.0 size=N/A time=00:22:46.86 bitrate=N/A speed=21.2x    frame=33058 fps=509 q=-0.0 size=N/A time=00:22:58.79 bitrate=N/A speed=21.2x    frame=33319 fps=508 q=-0.0 size=N/A time=00:23:09.67 bitrate=N/A speed=21.2x    frame=33552 fps=508 q=-0.0 size=N/A time=00:23:19.39 bitrate=N/A speed=21.2x    frame=33818 fps=508 q=-0.0 size=N/A time=00:23:30.49 bitrate=N/A speed=21.2x    frame=34086 fps=508 q=-0.0 size=N/A time=00:23:41.67 bitrate=N/A speed=21.2x    frame=34360 fps=508 q=-0.0 size=N/A time=00:23:53.09 bitrate=N/A speed=21.2x    frame=34648 fps=509 q=-0.0 size=N/A time=00:24:05.11 bitrate=N/A speed=21.2x    frame=34946 fps=509 q=-0.0 size=N/A time=00:24:17.53 bitrate=N/A speed=21.2x    frame=35232 fps=510 q=-0.0 size=N/A time=00:24:29.46 bitrate=N/A speed=21.3x    frame=35489 fps=510 q=-0.0 size=N/A time=00:24:40.18 bitrate=N/A speed=21.3x    [Parsed_psnr_10 @ 0000026deb78e480] PSNR y:49.574449 u:50.486352 v:51.364928 average:49.973906 min:42.345190 max:inf
[out#0/null @ 0000026debbb9040] video:15289KiB audio:278828KiB subtitle:0KiB other streams:0KiB global headers:0KiB muxing overhead: unknown
frame=35581 fps=510 q=-0.0 Lsize=N/A time=00:24:44.02 bitrate=N/A speed=21.3x    
